<?xml version="1.0" encoding="utf-8"?>
<!-- Generator: Adobe Illustrator 21.0.0, SVG Export Plug-In . SVG Version: 6.00 Build 0)  -->
<svg version="1.1" id="Layer_1" xmlns="http://www.w3.org/2000/svg" xmlns:xlink="http://www.w3.org/1999/xlink" x="0px" y="0px"
	 viewBox="0 0 512 512" style="enable-background:new 0 0 512 512;" xml:space="preserve">
<g>
	<path fill="#212529" d="M54.9,73.1v248l-41.7,42.3C4.9,371.7,0,383.1,0,394.9c0,24.1,19.9,44,44,44h424c24.1,0,44-19.9,44-44
		c0-11.7-4.9-23.1-13.1-31.4l-41.7-42.3v-248H54.9z M91.4,109.7h329.1v201.1H91.4V109.7z M256,128l-27.4,164.6H256L283.4,128H256z
		 M184.4,164.6L153,202.4l-6.7,7.9l6.7,7.9l31.4,37.8l19.9-15.8l-24.9-29.9l24.9-29.9L184.4,164.6z M327.6,164.6l-19.9,15.8
		l24.9,29.9l-24.9,29.9l19.9,15.8l31.4-37.8l6.7-7.9l-6.7-7.9L327.6,164.6z M81.1,347.4h349.7l42.3,41.7c1.4,1.4,2.3,3.7,2.3,5.7
		c0,4.4-3,7.4-7.4,7.4H44c-4.4,0-7.4-3-7.4-7.4c0-2,0.9-4.3,2.3-5.7L81.1,347.4z"/>
</g>
</svg>
